<?xml version="1.0" encoding="utf-8"?>
<!DOCTYPE svg PUBLIC "-//W3C//DTD SVG 1.1//EN" "http://www.w3.org/Graphics/SVG/1.1/DTD/svg11.dtd">
<svg version="1.1" id="Lubosky_Icons" xmlns="http://www.w3.org/2000/svg" xmlns:xlink="http://www.w3.org/1999/xlink" x="0px"
	 y="0px" width="24px" height="24px" viewBox="0 0 24 24" enable-background="new 0 0 24 24" xml:space="preserve">
<g>
	<path d="M12.7,12.681c-1.183-0.795-1.457-1.053-1.243-1.758c0.268-0.183,0.522-0.385,0.755-0.617
		c2.09-2.091,2.045-5.532-0.033-7.806H14.5v-2H7.493v0.052C6.157,0.627,4.919,1.15,3.987,2.083c-2.152,2.152-2.06,5.749,0.207,8.016
		c1.14,1.139,2.63,1.766,4.199,1.766c0.354,0,0.702-0.036,1.041-0.1c0.132,0.799,0.61,1.387,1.164,1.856
		c-0.784-0.158-1.622-0.245-2.499-0.245c-4.49,0-8.007,2.222-8.007,5.058s3.517,5.058,8.007,5.058s8.007-2.222,8.007-5.058
		C16.106,14.974,14.057,13.595,12.7,12.681z M5.608,8.686C4.121,7.197,4.028,4.87,5.401,3.498c0.628-0.629,1.481-0.975,2.405-0.975
		c1.019,0,2.033,0.431,2.783,1.18c1.487,1.488,1.581,3.815,0.208,5.189C9.478,10.213,7.038,10.114,5.608,8.686z M8.1,21.491
		c-3.54,0-6.007-1.611-6.007-3.058c0-1.446,2.467-3.058,6.007-3.058s6.007,1.611,6.007,3.058C14.106,19.88,11.64,21.491,8.1,21.491z
		"/>
	<polygon points="23.98,7.509 20.48,7.509 20.48,4.009 18.48,4.009 18.48,7.509 14.98,7.509 14.98,9.509 18.48,9.509 18.48,13.009
		20.48,13.009 20.48,9.509 23.98,9.509 	"/>
</g>
</svg>
