<?xml version="1.0" encoding="utf-8"?>
<!DOCTYPE svg PUBLIC "-//W3C//DTD SVG 1.1//EN" "http://www.w3.org/Graphics/SVG/1.1/DTD/svg11.dtd">
<svg version="1.1" id="Filled_Icons" xmlns="http://www.w3.org/2000/svg" xmlns:xlink="http://www.w3.org/1999/xlink" x="0px"
	 y="0px" width="24px" height="24px" viewBox="0 0 24 24" enable-background="new 0 0 24 24" xml:space="preserve">
<path d="M20.063,4H3.938C1.767,4,0,5.768,0,7.939v9.121C0,19.232,1.767,21,3.938,21h16.125C22.233,21,24,19.232,24,17.061V7.939
	C24,5.768,22.233,4,20.063,4z M16.538,12.531L9.77,16.862c-0.082,0.052-0.176,0.079-0.27,0.079c-0.083,0-0.165-0.021-0.24-0.063
	C9.1,16.792,9,16.623,9,16.441V7.779C9,7.596,9.1,7.428,9.26,7.34c0.161-0.087,0.356-0.08,0.51,0.018l6.769,4.332
	c0.144,0.092,0.23,0.25,0.23,0.421S16.682,12.439,16.538,12.531z"/>
</svg>
