<svg version="1.1" id="Lubosky_Icons" xmlns="http://www.w3.org/2000/svg" xmlns:xlink="http://www.w3.org/1999/xlink" x="0px"
	 y="0px" width="24px" height="24px" viewBox="0 0 24 24" enable-background="new 0 0 24 24" xml:space="preserve">
<path d="M19.5,15c-1.543,0-2.948,0.776-3.774,2.054l-7.005-3.502C8.906,13.053,9,12.533,9,12c0-0.534-0.094-1.054-0.278-1.552
	l7.004-3.502C16.552,8.224,17.957,9,19.5,9C21.981,9,24,6.981,24,4.5S21.981,0,19.5,0S15,2.019,15,4.5
	c0,0.532,0.095,1.052,0.279,1.551L8.267,9.558C7.442,8.28,6.043,7.5,4.5,7.5C2.019,7.5,0,9.519,0,12s2.019,4.5,4.5,4.5
	c1.543,0,2.942-0.78,3.767-2.058l7.016,3.508c-0.478,1.291-0.345,2.721,0.393,3.915C16.5,23.202,17.93,24,19.5,24
	c2.481,0,4.5-2.019,4.5-4.5S21.981,15,19.5,15z M19.5,1C21.43,1,23,2.57,23,4.5S21.43,8,19.5,8c-1.33,0-2.529-0.742-3.128-1.937
	c0,0-0.001,0-0.001-0.001C16.125,5.567,16,5.041,16,4.5C16,2.57,17.57,1,19.5,1z M4.5,15.5C2.57,15.5,1,13.93,1,12s1.57-3.5,3.5-3.5
	c1.331,0,2.529,0.742,3.127,1.936c0,0,0,0,0,0.001C7.875,10.93,8,11.456,8,12c0,0.542-0.126,1.068-0.373,1.563
	C7.029,14.758,5.831,15.5,4.5,15.5z M19.5,23c-1.221,0-2.332-0.621-2.975-1.66c-0.643-1.041-0.7-2.313-0.153-3.403
	C16.971,16.742,18.17,16,19.5,16c1.93,0,3.5,1.57,3.5,3.5S21.43,23,19.5,23z"/>
</svg>
