<?xml version="1.0" encoding="utf-8"?>
<!-- Generator: Adobe Illustrator 16.0.0, SVG Export Plug-In . SVG Version: 6.00 Build 0)  -->
<!DOCTYPE svg PUBLIC "-//W3C//DTD SVG 1.1//EN" "http://www.w3.org/Graphics/SVG/1.1/DTD/svg11.dtd">
<svg version="1.1" id="Layer_1" xmlns="http://www.w3.org/2000/svg" xmlns:xlink="http://www.w3.org/1999/xlink" x="0px" y="0px"
	 width="2267.72px" height="2267.72px" viewBox="0 0 2267.72 2267.72" enable-background="new 0 0 2267.72 2267.72"
	 xml:space="preserve">
<g>
	<path fill="none" stroke="#54A2D7" stroke-width="13" stroke-linecap="round" stroke-linejoin="round" stroke-miterlimit="10" d="
		M803.767,797.604l5.866-112.468c0.694-13.313,12.045-23.538,25.357-22.843l96.401,5.028 M836.912,702.669l44.184,2.305
		 M835.654,726.77l44.184,2.305 M834.397,750.87l44.185,2.305 M833.14,774.97l44.184,2.305 M881.586,849.995l-96.401-5.029
		c-13.313-0.695-23.538-12.043-22.843-25.357c0.695-13.313,12.044-23.538,25.358-22.843l96.4,5.029
		c-13.313-0.695-24.662,9.529-25.357,22.841C858.049,837.952,868.273,849.3,881.586,849.995
		c13.304,0.693,24.663-9.529,25.358-22.843l7.333-140.584c0.579-11.093,10.03-19.615,21.131-19.036
		c11.084,0.578,19.614,10.038,18.826,25.147l-40.167-2.095"/>
</g>
<g>
	<path fill="none" stroke="#54A2D7" stroke-width="13" stroke-linecap="round" stroke-linejoin="round" stroke-miterlimit="10" d="
		M879.083,255.447l-42.226,4.54l-35.721-22.971l7.928-94.955l105.458,24.937L879.083,255.447z M882.675,178.833l-50.437-11.926
		l-1.92,28.595l41.266,9.757l-12.174,31.012l-17.132,0.79l-14.964-8.379l1.139-14.255"/>
</g>
<g>

		<circle fill="none" stroke="#54A2D7" stroke-width="13" stroke-linecap="round" stroke-linejoin="round" stroke-miterlimit="10" cx="461.86" cy="791.646" r="67.973"/>
	<path fill="none" stroke="#54A2D7" stroke-width="13" stroke-linecap="round" stroke-linejoin="round" stroke-miterlimit="10" d="
		M387.61,877.624c-2.914-5.538-0.782-12.388,4.753-15.298c5.536-2.911,12.387-0.785,15.301,4.753
		c2.912,5.539,0.781,12.389-4.755,15.301C397.375,885.29,390.522,883.163,387.61,877.624z"/>
	<path fill="none" stroke="#54A2D7" stroke-width="13" stroke-linecap="round" stroke-linejoin="round" stroke-miterlimit="10" d="
		M348.942,804.094c-2.911-5.536-0.782-12.389,4.753-15.301c5.536-2.911,12.389-0.782,15.3,4.755
		c2.911,5.535,0.781,12.388-4.755,15.299C358.706,811.759,351.854,809.629,348.942,804.094z"/>
	<path fill="none" stroke="#54A2D7" stroke-width="13" stroke-linecap="round" stroke-linejoin="round" stroke-miterlimit="10" d="
		M454.789,859.363l-52.729-100.269 M430.182,812.571l93.583-49.214 M502.273,868.525l-8.788-16.711 M531.891,843.017l-15.223-11.169
		 M467.528,878.313l-1.231-18.839 M421.422,714.779l8.788,16.712 M459.224,704.833l0.574,18.872 M393.667,737.858l14.822,11.689
		 M406.786,865.75c6.176-5.844,10.374-13.331,12.113-21.424 M394.11,797.191c-7.656-3.158-16.203-3.946-24.517-2.166"/>
</g>
<g>
	<path fill="none" stroke="#54A2D7" stroke-width="13" stroke-linecap="round" stroke-linejoin="round" stroke-miterlimit="10" d="
		M863.892,1225.823c-15.492-79.849-92.803-132.004-172.616-116.518c-79.849,15.491-132.011,92.768-116.519,172.615
		c13.062,67.32,70.104,114.802,135.552,118.779l5.598,28.848l72.283-14.024l-5.597-28.848
		C841.76,1358.521,876.954,1293.144,863.892,1225.823z M782.796,1516.576l-24.095,4.675 M797.54,1463.712l-72.283,14.025
		 M672.577,1012.927l9.349,48.189 M960.27,1207.124l-48.189,9.35 M478.38,1300.62l48.189-9.35 M495.538,1102.834l61.037,41.199
		 M870.357,1030.111l-41.213,61.039"/>
</g>
<g>
	<path fill="none" stroke="#54A2D7" stroke-width="13" stroke-linecap="round" stroke-linejoin="round" stroke-miterlimit="10" d="
		M1193.072,975.229h18.527c0,0,33.279-4.334,33.279-36.978c0-20.678-17.078-37.681-38.308-36.899
		c-8.289-17.519-26.077-29.647-46.733-29.647c-27.544,0-50.001,21.524-51.609,48.658c-17.258-3.609-33.43,9.524-33.43,27.129
		c0,28.175,29.58,27.737,29.58,27.737h22.132 M1159.838,931.185v85.039 M1183.031,954.377l-23.193-23.192l-23.191,23.192"/>
</g>
<path fill="none" stroke="#54A2D7" stroke-width="13" stroke-linecap="round" stroke-linejoin="round" stroke-miterlimit="10" d="
	M458.107,1578.19l36.638,143.532c3.374,13.182-4.589,26.604-17.781,29.973c-13.179,3.36-26.587-4.593-29.972-17.78l-49.874-194.102
	c-6.728-26.37,9.196-53.212,35.564-59.95c26.391-6.723,53.217,9.191,59.955,35.568l51.729,202.61
	c9.268,36.279-12.626,73.186-48.902,82.435c-36.253,9.261-73.166-12.637-82.408-48.887l-36.643-143.521"/>
<g>
	<path fill="none" stroke="#54A2D7" stroke-width="13" stroke-linecap="round" stroke-linejoin="round" stroke-miterlimit="10" d="
		M137.488,1435.575l71.775,7.389l-9.235,89.719l-71.776-7.388L137.488,1435.575z M156.817,1423.964l35.888,3.694l-1.386,13.458
		l-35.887-3.693L156.817,1423.964z M126.273,1434.421l98.691,10.159 M153.816,1453.123l-5.541,53.831 M171.759,1454.97
		l-5.542,53.832 M189.704,1456.816l-5.542,53.832"/>
</g>
<g>

		<circle fill="none" stroke="#54A2D7" stroke-width="13" stroke-linecap="round" stroke-linejoin="round" stroke-miterlimit="10" cx="954.285" cy="1852.557" r="127.559"/>
	<path fill="none" stroke="#54A2D7" stroke-width="13" stroke-linecap="round" stroke-linejoin="round" stroke-miterlimit="10" d="
		M919.497,1823.567c0-19.207,15.57-34.787,34.789-34.787c19.206,0,34.788,15.58,34.788,34.787c0,19.23-15.582,34.789-34.788,34.789
		v34.789"/>
	<path fill="none" stroke="#54A2D7" stroke-width="13" stroke-linejoin="round" stroke-miterlimit="10" d="M960.083,1922.136
		c0,3.193-2.598,5.797-5.797,5.797s-5.798-2.604-5.798-5.797c0-3.194,2.599-5.798,5.798-5.798S960.083,1918.941,960.083,1922.136z"
		/>
</g>
<g>
	<path fill="none" stroke="#54A2D7" stroke-width="13" stroke-linecap="round" stroke-linejoin="round" stroke-miterlimit="10" d="
		M1882.431,1970.436h34.005v-31.428h-34.016c-2.189-9.084-5.77-22.85-10.506-30.608l24.051-24.042l-29.637-29.637l-24.063,24.051
		c-7.755-4.736-21.504-8.307-30.589-10.496v-34.025h-31.427v34.025c-9.085,2.189-22.85,5.76-30.6,10.496l-24.062-24.051
		l-29.638,29.637l24.062,24.052c-4.736,7.749-8.317,21.515-10.517,30.599h-34.005v31.428h34.005
		c2.199,9.085,5.78,22.855,10.517,30.6l-24.062,24.062l29.638,29.628l24.052-24.063c7.76,4.758,21.524,8.328,30.609,10.527v34.005
		h31.427v-34.005c9.085-2.199,22.854-5.781,30.589-10.518l24.072,24.053l29.627-29.628l-24.051-24.062
		C1876.65,1993.291,1880.23,1979.521,1882.431,1970.436z"/>

		<circle fill="none" stroke="#54A2D7" stroke-width="13" stroke-linecap="round" stroke-linejoin="round" stroke-miterlimit="10" cx="1795.963" cy="1954.722" r="47.141"/>
</g>
<g>
	<path fill="none" stroke="#54A2D7" stroke-width="13" stroke-linecap="round" stroke-linejoin="round" stroke-miterlimit="10" d="
		M111.35,1779.336l-5.626-27.114c-3.734-17.998-18.291-30.943-35.458-33.568c-2.559-6.864-9.792-11.034-17.187-9.5
		c-7.395,1.534-12.39,8.242-12.007,15.558c-14.702,9.236-22.89,26.902-19.156,44.9l5.626,27.113
		c1.695,8.17-3.556,16.165-11.721,17.858l113.386-23.526C121.029,1792.754,113.045,1787.505,111.35,1779.336z M87.305,1799.751
		c1.695,8.17-3.556,16.164-11.721,17.858c-8.179,1.697-16.163-3.551-17.858-11.721"/>
</g>
<path fill="none" stroke="#54A2D7" stroke-width="13" stroke-linejoin="round" stroke-miterlimit="10" d="M1881.848,584.726
	c12.779-12.785,15.25-32.009,7.439-47.274l-20.694,20.63h-16.647v-17.548l20.175-20.697c-15.257-7.805-34.688-5.336-47.466,7.436
	c-12.773,12.773-15.373,31.938-7.562,47.207l-61.411,61.362c-4.882,4.869-4.918,12.779-0.03,17.66
	c4.879,4.889,12.772,4.889,17.657,0l61.342-61.343C1849.918,599.958,1869.081,597.493,1881.848,584.726z"/>
<g>

		<circle fill="none" stroke="#54A2D7" stroke-width="13" stroke-linecap="round" stroke-linejoin="round" stroke-miterlimit="10" cx="1471.02" cy="943.964" r="56.693"/>
	<path fill="none" stroke="#54A2D7" stroke-width="13" stroke-linecap="round" stroke-linejoin="round" stroke-miterlimit="10" d="
		M1508.146,940.349c4.648,19.886-7.701,39.771-27.588,44.419c-19.889,4.649-39.77-7.702-44.418-27.587 M1499.979,927.07
		c-1.239-5.3-20.441-0.812-19.202,4.489"/>

		<circle fill="none" stroke="#54A2D7" stroke-width="13" stroke-linecap="round" stroke-linejoin="round" stroke-miterlimit="10" cx="1446.613" cy="937.013" r="7.395"/>
</g>
<g>
	<path fill="none" stroke="#54A2D7" stroke-width="13" stroke-linecap="round" stroke-linejoin="round" stroke-miterlimit="10" d="
		M1193.387,1573.077c-0.529,4.563-4.659,7.836-9.222,7.308l-110.184-12.766c-4.562-0.528-7.835-4.658-7.306-9.221l7.659-66.11
		c0.529-4.568,4.659-7.836,9.221-7.307l110.183,12.765c4.563,0.529,7.836,4.653,7.307,9.222L1193.387,1573.077z M1182.923,1518.825
		l-50.339,24.876l-43.318-35.726 M1084.479,1549.294l20.559-8.785 M1178.135,1560.145l-18.005-13.252"/>
</g>
<g>

		<circle fill="none" stroke="#54A2D7" stroke-width="13" stroke-linecap="round" stroke-linejoin="round" stroke-miterlimit="10" cx="676.498" cy="477.597" r="41.521"/>
	<path fill="none" stroke="#54A2D7" stroke-width="13" stroke-linecap="round" stroke-linejoin="round" stroke-miterlimit="10" d="
		M752.877,551.4c-14.362,14.907-33.237,25.663-55.038,30.139c-57.413,11.789-113.498-25.193-125.285-82.601
		c-11.786-57.404,25.189-113.496,82.602-125.284c57.409-11.787,113.498,25.197,125.284,82.602l1.856,9.039
		c3.589,17.477-7.663,34.541-25.14,38.129c-17.477,3.588-34.541-7.663-38.129-25.139l-1.856-9.039"/>
</g>
<g>
	<path fill="none" stroke="#54A2D7" stroke-width="13" stroke-linecap="round" stroke-linejoin="round" stroke-miterlimit="10" d="
		M140.301,2163.634l-67.785-30.812v49.299l67.785,30.811V2163.634z M214.248,2132.822l-73.947,30.812v49.298l73.947-30.811V2132.822
		z"/>
	<path fill="none" stroke="#54A2D7" stroke-width="13" stroke-linecap="round" stroke-linejoin="round" stroke-miterlimit="10" d="
		M143.382,2126.66c10.207,0,18.487,4.141,18.487,9.244c0,5.103-8.28,9.242-18.487,9.242c-10.209,0-18.487-4.14-18.487-9.242
		C124.895,2130.801,133.173,2126.66,143.382,2126.66z"/>
	<path fill="none" stroke="#54A2D7" stroke-width="13" stroke-linecap="round" stroke-linejoin="round" stroke-miterlimit="10" d="
		M143.382,2092.768c10.207,0,18.487,4.141,18.487,9.244c0,5.103-8.28,9.242-18.487,9.242c-10.209,0-18.487-4.14-18.487-9.242
		C124.895,2096.908,133.173,2092.768,143.382,2092.768z"/>
	<path fill="none" stroke="#54A2D7" stroke-width="13" stroke-linecap="round" stroke-linejoin="round" stroke-miterlimit="10" d="
		M186.518,2111.254c10.206,0,18.487,4.141,18.487,9.244s-8.281,9.243-18.487,9.243c-10.207,0-18.487-4.14-18.487-9.243
		S176.312,2111.254,186.518,2111.254z"/>

		<ellipse fill="none" stroke="#54A2D7" stroke-width="13" stroke-linecap="round" stroke-linejoin="round" stroke-miterlimit="10" cx="103.327" cy="2120.498" rx="18.487" ry="9.244"/>
	<path fill="none" stroke="#54A2D7" stroke-width="13" stroke-linecap="round" stroke-linejoin="round" stroke-miterlimit="10" d="
		M88.379,2125.926l-15.863,6.896 M129.436,2108.074l-13.278,5.773 M172.304,2114.588l-14.99-6.52 M214.248,2132.822l-14.172-6.162"
		/>
</g>
<g>

		<circle fill="none" stroke="#54A2D7" stroke-width="13" stroke-linejoin="round" stroke-miterlimit="10" cx="2107.562" cy="2133.072" r="2.356"/>
	<path fill="none" stroke="#54A2D7" stroke-width="13" stroke-linecap="round" stroke-linejoin="round" stroke-miterlimit="10" d="
		M2107.378,2135.421l-1.104,14.098"/>
	<path fill="none" stroke="#54A2D7" stroke-width="13" stroke-linejoin="round" stroke-miterlimit="10" d="M2069.64,2104.099
		l79.889,6.254l-5.149,65.791l-79.89-6.254L2069.64,2104.099z M2085.026,2088.755c1.117-14.277,13.592-24.94,27.869-23.822
		c14.277,1.117,24.94,13.592,23.822,27.869l-1.287,16.447l-51.692-4.047L2085.026,2088.755z"/>
</g>
<g>
	<path fill="none" stroke="#54A2D7" stroke-width="13" stroke-linejoin="round" stroke-miterlimit="10" d="M2045.75,1600.656
		c37.572,6.406,62.842,42.061,56.436,79.637c-6.407,37.572-42.063,62.842-79.637,56.435c-37.576-6.406-62.842-42.063-56.436-79.636
		C1972.521,1619.516,2008.174,1594.25,2045.75,1600.656z"/>
	<path fill="none" stroke="#54A2D7" stroke-width="13" stroke-linecap="round" stroke-linejoin="round" stroke-miterlimit="10" d="
		M2074.051,1724.998l65.915,93.012"/>
</g>
<g>
	<path fill="none" stroke="#54A2D7" stroke-width="13" stroke-linejoin="round" stroke-miterlimit="10" d="M480.989,139.121
		l-64.561,12.916c-41.155,8.234-40.194-62.584-7.965-59.979C505.822,99.945,505.388,134.24,480.989,139.121z M426.881,64.428
		l6.091,30.443"/>
	<path fill="none" stroke="#54A2D7" stroke-width="13" stroke-linejoin="round" stroke-miterlimit="10" d="M453.193,59.164
		c1.09,5.448-2.497,10.762-7.996,11.862c-5.499,1.1-18.317-6.598-18.317-6.598s8.87-12.037,14.369-13.136
		C446.749,50.191,452.103,53.709,453.193,59.164z M400.568,69.692c1.09,5.448,6.433,8.976,11.947,7.872
		c5.496-1.099,14.365-13.136,14.365-13.136s-12.817-7.697-18.313-6.598C403.053,58.933,399.478,64.238,400.568,69.692z"/>

		<circle fill="none" stroke="#54A2D7" stroke-width="13" stroke-linejoin="round" stroke-miterlimit="10" cx="465.696" cy="121.656" r="3.354"/>
	<path fill="none" stroke="#54A2D7" stroke-width="13" stroke-linecap="round" stroke-linejoin="round" stroke-miterlimit="10" d="
		M390.918,142.877c0,0-36.051,6.144-32.472,24.035c3.578,17.885,61.329-1.22,65.113,17.692l-40.125,35.607"/>
</g>
<g>
	<path fill="none" stroke="#54A2D7" stroke-width="13" stroke-linecap="round" stroke-linejoin="round" stroke-miterlimit="10" d="
		M1133.097,1276.894c-26.914-15.999-35.758-50.787-19.757-77.707c16.002-26.907,50.791-35.753,77.704-19.756
		c26.911,16,35.757,50.797,19.757,77.707c-7.65,12.874-24.289,17.104-37.16,9.448l-25.423-15.119
		c-2.341-1.39-5.367-0.62-6.755,1.718c-1.389,2.353-0.621,5.371,1.717,6.757c4.677,2.787,6.215,8.834,3.438,13.515
		C1143.832,1278.146,1137.776,1279.686,1133.097,1276.894z"/>
	<path fill="none" stroke="#54A2D7" stroke-width="13" stroke-linecap="round" stroke-linejoin="round" stroke-miterlimit="10" d="
		M1174.506,1192.205c3.957-1.006,7.978,1.382,8.984,5.343c1.006,3.956-1.386,7.975-5.342,8.98c-3.957,1.006-7.977-1.383-8.982-5.339
		C1168.158,1197.229,1170.551,1193.211,1174.506,1192.205z"/>
	<path fill="none" stroke="#54A2D7" stroke-width="13" stroke-linecap="round" stroke-linejoin="round" stroke-miterlimit="10" d="
		M1194.299,1214.887c2.642-0.672,5.324,0.92,5.994,3.56c0.672,2.642-0.924,5.324-3.564,5.995c-2.641,0.672-5.32-0.924-5.992-3.565
		C1190.065,1218.236,1191.658,1215.558,1194.299,1214.887z"/>

		<circle fill="none" stroke="#54A2D7" stroke-width="13" stroke-linecap="round" stroke-linejoin="round" stroke-miterlimit="10" cx="1188.353" cy="1246.663" r="9.858"/>
	<path fill="none" stroke="#54A2D7" stroke-width="13" stroke-linecap="round" stroke-linejoin="round" stroke-miterlimit="10" d="
		M1144.503,1194.437c3.956-1.006,7.976,1.383,8.981,5.339c1.006,3.951-1.385,7.975-5.341,8.98c-3.954,1.006-7.978-1.387-8.983-5.339
		C1138.154,1199.461,1140.549,1195.441,1144.503,1194.437z"/>
</g>
<g>
	<path fill="none" stroke="#54A2D7" stroke-width="13" stroke-linecap="round" stroke-linejoin="round" stroke-miterlimit="10" d="
		M1426.89,2073.32l-29.689,9.398c-16.329,5.16-34.292-5.189-39.927-22.99c-5.635-17.813,3.114-36.615,19.441-41.783l29.681-9.39
		 M1406.396,2008.563l20.493,64.758 M1411.52,2024.752l21.584-6.828 M1421.767,2057.133l21.588-6.83 M1399.019,2022.77l13.658,43.17
		"/>

		<circle fill="none" stroke="#54A2D7" stroke-width="13" stroke-linecap="round" stroke-linejoin="round" stroke-miterlimit="10" cx="1381.563" cy="2052.043" r="8.491"/>
	<path fill="none" stroke="#54A2D7" stroke-width="13" stroke-linecap="round" stroke-linejoin="round" stroke-miterlimit="10" d="
		M1360.769,2067.529l-17.125,5.414l-5.122-16.189l17.123-5.421 M1341.086,2064.85l-35.081,11.101
		c-5.96,1.883-9.266,8.247-7.376,14.204c1.879,5.958,8.244,9.264,14.206,7.377l24.286-7.682c4.472-1.415,9.242,1.063,10.66,5.536
		c1.413,4.471-1.063,9.239-5.533,10.655l-12.843,4.058"/>
</g>
<path fill="none" stroke="#54A2D7" stroke-width="13" stroke-linejoin="round" stroke-miterlimit="10" d="M2071.214,1303.33
	l15.115,41.981l43.32,11.482l-35.483,27.196l2.469,44.501l-37.03-25.179l-41.795,16.024l12.585-42.751l-28.304-34.604l44.815-1.248
	L2071.214,1303.33z"/>
<g>

		<rect x="1714.041" y="815.14" transform="matrix(-0.9838 -0.1795 0.1795 -0.9838 3440.751 2148.7815)" fill="none" stroke="#54A2D7" stroke-width="13" stroke-linejoin="round" stroke-miterlimit="10" width="207.126" height="207.127"/>

		<line fill="none" stroke="#54A2D7" stroke-width="13" stroke-linejoin="round" stroke-miterlimit="10" x1="1910.593" y1="986.021" x2="1706.831" y2="948.836"/>
	<path fill="none" stroke="#54A2D7" stroke-width="13" stroke-linejoin="round" stroke-miterlimit="10" d="M1809.197,839.358
		c-11.03-2.013-21.579,4.43-25.193,14.659c-1.394-0.835-2.926-1.481-4.617-1.79c-7.336-1.339-14.374,3.526-15.714,10.863
		c-1.338,7.336,3.527,14.375,10.864,15.714l26.577,4.85c12.234,2.232,23.956-5.872,26.189-18.106
		C1829.537,853.315,1821.432,841.591,1809.197,839.358z"/>
	<path fill="none" stroke="#54A2D7" stroke-width="13" stroke-linejoin="round" stroke-miterlimit="10" d="M1733.409,953.686
		c0,0,25.802-41.062,47.949-37.02c22.149,4.042,35.017,33.853,35.017,33.853l35.071-40.909c3.48-4.084,8.89-5.995,14.166-5.032
		c5.641,1.03,10.2,5.151,11.79,10.645l19.902,68.373"/>
</g>
<g>
	<path fill="none" stroke="#54A2D7" stroke-width="13" stroke-linecap="round" stroke-linejoin="round" stroke-miterlimit="10" d="
		M1431.613,1313.995l19.525,87.864c10.788,48.545,58.867,79.123,107.392,68.339l98.849-21.967l118.372,65.899l-19.525-87.865
		l21.967-4.881c48.521-10.783,79.127-58.846,68.338-107.39l-19.524-87.865c-10.783-48.524-58.868-79.121-107.391-68.34
		l-219.662,48.814C1451.43,1217.389,1420.831,1265.471,1431.613,1313.995z"/>
	<path fill="none" stroke="#54A2D7" stroke-width="13" stroke-linecap="round" stroke-linejoin="round" stroke-miterlimit="10" d="
		M1410.868,1479.959c-30.331,6.74-49.452,36.787-42.711,67.122l9.763,43.93c6.739,30.332,36.787,49.453,67.119,42.712l32.949-7.322
		l14.645,65.898l51.254-80.543l54.915-12.202c30.332-6.74,49.452-36.787,42.711-67.119"/>
</g>
<g>
	<g>
		<path fill="none" stroke="#54A2D7" stroke-width="13" stroke-linecap="round" stroke-linejoin="round" stroke-miterlimit="10" d="
			M1921.208,203.164l-116.129-27.558c-8.013-1.901-16.06,3.062-17.961,11.071c-1.9,8.008,3.059,16.06,11.071,17.961l116.129,27.558
			l-32.725,137.902l-116.129-27.559c-8.013-1.901-12.973-9.95-11.072-17.96l32.726-137.902 M1801.635,190.123l108.87,25.836"/>
	</g>
	<path fill="none" stroke="#54A2D7" stroke-width="13" stroke-linecap="round" stroke-linejoin="round" stroke-miterlimit="10" d="
		M1771.248,221.246l14.518,3.444 M1766.081,243.02l14.517,3.445 M1760.914,264.793l14.518,3.445 M1755.747,286.567l14.517,3.444
		 M1750.58,308.342l14.517,3.444"/>
	<path fill="none" stroke="#54A2D7" stroke-width="13" stroke-linejoin="round" stroke-miterlimit="10" d="M1846.289,292.72
		l-2.584,10.888l17.17,9.645c3.575,2.002,5.734,6.91,4.788,10.899l-2.583,10.887l-72.58-17.224l2.583-10.887
		c0.947-3.99,5.077-7.405,9.168-7.588l19.68-0.899l2.584-10.888"/>
	<path fill="none" stroke="#54A2D7" stroke-width="13" stroke-linejoin="round" stroke-miterlimit="10" d="M1845.737,246.58
		c12.022,2.854,19.251,15.8,16.138,28.92c-3.111,13.112-15.387,21.43-27.408,18.577c-12.025-2.854-19.252-15.799-16.141-28.911
		C1821.44,252.046,1833.713,243.727,1845.737,246.58z"/>
	<path fill="none" stroke="#54A2D7" stroke-width="13" stroke-linejoin="round" stroke-miterlimit="10" d="M1862.532,271.373
		c-4.491,2.768-14.722,0.041-16.907-8.167c-8.98,5.536-20.774,2.737-25.663-2.803"/>
</g>
<g>
	<path fill="none" stroke="#54A2D7" stroke-width="13" stroke-linecap="round" stroke-linejoin="round" stroke-miterlimit="10" d="
		M1236.73,438.343c4.537,19.676,24.154,31.921,43.818,27.387c19.663-4.535,31.941-24.115,27.399-43.81
		c-4.527-19.634-24.154-31.923-43.819-27.388c-19.663,4.535-39.279-7.711-43.817-27.388c-4.532-19.652,7.73-39.295,27.395-43.831
		c19.664-4.535,39.291,7.755,43.823,27.407"/>

		<line fill="none" stroke="#54A2D7" stroke-width="13" stroke-linecap="round" stroke-linejoin="round" stroke-miterlimit="10" x1="1280.549" y1="465.73" x2="1286.022" y2="489.465"/>

		<line fill="none" stroke="#54A2D7" stroke-width="13" stroke-linecap="round" stroke-linejoin="round" stroke-miterlimit="10" x1="1242.242" y1="299.622" x2="1247.706" y2="323.313"/>
	<g>

			<polygon fill="none" stroke="#54A2D7" stroke-width="13" stroke-linecap="round" stroke-linejoin="round" stroke-miterlimit="10" points="
			1587.821,642.041 1229.193,724.746 1117.3,239.543 1349.354,186.029 1505.117,283.415 		"/>

			<polyline fill="none" stroke="#54A2D7" stroke-width="13" stroke-linecap="round" stroke-linejoin="round" stroke-miterlimit="10" points="
			1349.354,186.029 1378.542,312.604 1505.117,283.415 		"/>
	</g>

		<line fill="none" stroke="#54A2D7" stroke-width="13" stroke-linecap="round" stroke-linejoin="round" stroke-miterlimit="10" x1="1260.176" y1="562.076" x2="1490.48" y2="508.965"/>

		<line fill="none" stroke="#54A2D7" stroke-width="13" stroke-linecap="round" stroke-linejoin="round" stroke-miterlimit="10" x1="1375.601" y1="491.025" x2="1480.75" y2="466.777"/>

		<line fill="none" stroke="#54A2D7" stroke-width="13" stroke-linecap="round" stroke-linejoin="round" stroke-miterlimit="10" x1="1407.733" y1="439.18" x2="1471.021" y2="424.585"/>

		<line fill="none" stroke="#54A2D7" stroke-width="13" stroke-linecap="round" stroke-linejoin="round" stroke-miterlimit="10" x1="1398.003" y1="396.987" x2="1461.291" y2="382.392"/>

		<line fill="none" stroke="#54A2D7" stroke-width="13" stroke-linecap="round" stroke-linejoin="round" stroke-miterlimit="10" x1="1269.905" y1="604.267" x2="1500.21" y2="551.156"/>

		<line fill="none" stroke="#54A2D7" stroke-width="13" stroke-linecap="round" stroke-linejoin="round" stroke-miterlimit="10" x1="1279.636" y1="646.459" x2="1509.939" y2="593.349"/>
</g>
<g>
	<path fill="none" stroke="#54A2D7" stroke-width="13" stroke-linejoin="round" stroke-miterlimit="10" d="M2176.793,708.626
		l-36.049,11.006l-11.007,36.049l-80.461-80.451l-0.043-47.11h47.098L2176.793,708.626z"/>

		<circle fill="none" stroke="#54A2D7" stroke-width="13" stroke-linejoin="round" stroke-miterlimit="10" cx="2076.963" cy="655.852" r="11.092"/>
</g>
<g>
	<path fill="none" stroke="#54A2D7" stroke-width="13" stroke-linecap="round" stroke-linejoin="round" stroke-miterlimit="10" d="
		M-6.446,289.747"/>
	<path fill="none" stroke="#54A2D7" stroke-width="13" stroke-linecap="round" stroke-linejoin="round" stroke-miterlimit="10" d="
		M2129.926,0.109"/>
	<path fill="none" stroke="#54A2D7" stroke-width="13" stroke-linecap="round" stroke-linejoin="round" stroke-miterlimit="10" d="
		M2092.103,0.109"/>
	<path fill="none" stroke="#54A2D7" stroke-width="13" stroke-linecap="round" stroke-linejoin="round" stroke-miterlimit="10" d="
		M398.936,2016.13L398.936,2016.13l45.616-57.293l-38.2-30.403l-91.223,114.58l91.223-114.58l-40.377-32.135
		c-19.818-15.777-48.895-12.479-64.673,7.34l-33.896,42.551c-15.776,19.84-12.476,48.917,7.342,64.694l78.575,62.538
		L398.936,2016.13L398.936,2016.13z"/>
	<path fill="none" stroke="#54A2D7" stroke-width="13" stroke-linecap="round" stroke-linejoin="round" stroke-miterlimit="10" d="
		M2267.72,207.821c-19.541,20.244-33.616,46.208-39.278,75.912C2234.104,254.029,2248.179,228.065,2267.72,207.821
		 M2213.506,941.026l-8.944-36.81l55.215-13.415 M2267.426,1122.84l0.294-0.071 M2252.715,1262.857l-76.021-312.888
		L2252.715,1262.857l15.005-3.646 M2267.72,1298.192 M2224.847,1308.609l-93.905-386.506l36.81-8.944l-36.81,8.944
		L2224.847,1308.609l42.873-10.417 M1101.407,2267.72l-12.292-62.619c-1.159-5.903,2.693-11.64,8.598-12.798l48.143-9.451
		c5.902-1.158,11.639,2.695,12.798,8.599l14.972,76.27 M597.369,2267.72l-244.046-194.298l-78.575-62.538
		c-19.818-15.777-23.118-44.854-7.342-64.694l33.896-42.551c15.778-19.818,44.855-23.117,64.673-7.34l40.377,32.135l0.003-0.004
		l-0.003,0.004l38.2,30.403l305.558,243.272 M0,1298.193l288.421-70.076l-93.905-386.503l-36.81,8.943l36.81-8.943l93.905,386.503
		L0,1298.193 M0,1259.213l242.668-58.961l-76.019-312.886l76.019,312.886L0,1259.213 M8.91,1120.607L0,1122.77 M0,857.353
		c5-5.904,11.839-10.341,19.926-12.306c20.346-4.944,40.819,7.557,45.755,27.867l55.214-13.414l8.943,36.809L0,927.855 M0,857.353
		 M0,209.167 M137.26,164.601c81.275,15.493,134.628,93.953,119.133,175.246l10.514,2.004c23.203,4.424,38.46,26.869,34.039,50.073
		l-4.008,21.027c23.204,4.422,38.46,26.864,34.038,50.068c-4.431,23.247-26.867,38.463-50.07,34.04
		c23.203,4.423,45.64-10.793,50.07-34.04c4.423-23.204-10.834-45.646-34.038-50.068l-20.042,105.135
		c-3.737,19.609-20.286,33.502-39.301,34.715l-4.262,22.356c-7.751,40.655-44.963,56.801-85.621,49.051l-42.054-8.016
		c-3.319,17.413-20.14,28.849-37.553,25.531c-17.423-3.323-28.849-20.142-25.529-37.555c3.32-17.412,20.13-28.849,37.554-25.529
		c17.412,3.32,28.846,20.143,25.528,37.553l42.054,8.016c40.658,7.75,77.87-8.396,85.621-49.051l4.262-22.356
		c-3.527,0.225-7.138,0.014-10.769-0.678l-42.053-8.016l40.08-210.271l31.54,6.012C271.888,258.553,218.535,180.093,137.26,164.601
		C85.014,154.641,33.942,173.116,0,209.167 M1189.73,0.109l1.345,18.626c0.214,2.967-2.021,5.56-4.998,5.775
		c2.977-0.215,5.561,2.019,5.775,4.995l1.944,26.927c0.214,2.966-2.021,5.559-4.998,5.774l-102.32,7.388
		c-2.977,0.215-5.56-2.031-5.774-4.997l-1.944-26.927c-0.215-2.977,2.02-5.558,4.997-5.773c-2.977,0.215-5.56-2.031-5.774-4.998
		l-1.934-26.792 M1709.979,0.109c1.164,1.595,1.976,3.531,2.503,5.465l1.933,13.643l11.356,3.801
		c9.095,3.044,10.689,7.988,8.652,14.093l-20.316,60.703c-2.04,6.095-6.614,10.058-15.706,7.016l-110.377-36.942
		c-9.094-3.043-10.361-8.962-8.321-15.057l17.646-52.72 M2092.103,0.109 M2129.926,0.109c-0.219,2.63-0.195,5.16,0.191,7.422
		l-32.596,5.581c-0.708-4.133-2.84-8.696-5.419-13.003 M2263.213,1065.39l-9.203,2.236L2263.213,1065.39z M2249.797,1010.176
		l-9.202,2.235L2249.797,1010.176z M129.321,974.402l-110.43,26.831L129.321,974.402z M13.124,1178.057l9.202-2.236L13.124,1178.057
		z M142.736,1029.617l-110.43,26.83L142.736,1029.617z M156.15,1084.831l-110.43,26.831L156.15,1084.831z M169.566,1140.047
		l-110.431,26.83L169.566,1140.047z M2138.869,19.454l-45.635,7.813L2138.869,19.454z M2077.761,93.666
		c-2.896-16.916,9.875-41.134,22.397-54.163l36.252-6.207c16.142,8.121,36.244,26.711,39.14,43.626
		c4.009,23.41-6.898,38.088-42.755,44.228C2096.939,127.289,2081.77,117.075,2077.761,93.666z M2143.809,441.932l20.041-105.137
		c-23.234-4.429-45.646,10.834-50.07,34.037c-4.43,23.246,10.804,45.645,34.037,50.073c-23.233-4.429-38.467-26.827-34.037-50.073
		c4.424-23.203,26.836-38.466,50.07-34.037l4.008-21.025c4.432-23.245,26.836-38.469,50.07-34.04l42.056,8.017l-40.081,210.271
		L2177.848,492C2154.613,487.572,2139.378,465.178,2143.809,441.932z"/>

		<polygon fill="none" stroke="#54A2D7" stroke-width="13" stroke-linecap="round" stroke-linejoin="round" stroke-miterlimit="10" points="
		672.667,2234.062 729.837,2227.574 750.109,2202.109 444.551,1958.837 398.936,2016.131 	"/>

		<polyline fill="none" stroke="#54A2D7" stroke-width="13" stroke-linecap="round" stroke-linejoin="round" stroke-miterlimit="10" points="
		676.487,2267.72 672.667,2234.062 398.936,2016.131 353.322,2073.422 597.369,2267.72 	"/>

		<polyline fill="none" stroke="#54A2D7" stroke-width="13" stroke-linecap="round" stroke-linejoin="round" stroke-miterlimit="10" points="
		778.744,2267.72 750.109,2202.109 729.837,2227.574 672.667,2234.062 676.487,2267.72 	"/>
	<path fill="none" stroke="#54A2D7" stroke-width="13" stroke-linecap="round" stroke-linejoin="round" stroke-miterlimit="10" d="
		M676.487,2267.72"/>
	<path fill="none" stroke="#54A2D7" stroke-width="13" stroke-linejoin="round" stroke-miterlimit="10" d="M1597.348,0.109
		l-17.646,52.72c-2.04,6.095-0.772,12.014,8.321,15.057l110.377,36.942c9.092,3.042,13.666-0.921,15.706-7.016l20.316-60.703
		c2.037-6.105,0.442-11.049-8.652-14.093l-11.356-3.801l-1.933-13.643 M1640.346,36.664c5.94-17.75,25.146-27.323,42.896-21.382
		c17.746,5.939,27.323,25.145,21.382,42.895c-5.94,17.748-25.148,27.322-42.895,21.382
		C1643.979,73.618,1634.406,54.411,1640.346,36.664z M1608.23,6.421c1.62-4.838,6.857-7.452,11.699-5.831
		c4.841,1.62,7.45,6.859,5.831,11.699c-1.619,4.838-6.856,7.452-11.699,5.831C1609.22,16.5,1606.611,11.26,1608.23,6.421z"/>
	<path fill="none" stroke="#54A2D7" stroke-width="13" stroke-linejoin="round" stroke-miterlimit="10" d="M1661.729,79.559
		c17.746,5.94,36.954-3.634,42.895-21.382c5.941-17.75-3.636-36.956-21.382-42.895c-17.75-5.941-36.955,3.632-42.896,21.382
		C1634.406,54.411,1643.979,73.618,1661.729,79.559z M1654.954,41.553c3.239-9.681,13.719-14.902,23.397-11.663
		c9.679,3.239,14.902,13.716,11.662,23.397c-3.239,9.678-13.719,14.902-23.396,11.664
		C1656.938,61.711,1651.715,51.231,1654.954,41.553z"/>
	<path fill="none" stroke="#54A2D7" stroke-width="13" stroke-linejoin="round" stroke-miterlimit="10" d="M1666.617,64.951
		c9.678,3.239,20.157-1.985,23.396-11.664c3.24-9.681-1.983-20.158-11.662-23.397c-9.679-3.24-20.158,1.981-23.397,11.663
		C1651.715,51.231,1656.938,61.711,1666.617,64.951z"/>

		<circle fill="none" stroke="#54A2D7" stroke-width="13" stroke-linejoin="round" stroke-miterlimit="10" cx="1616.996" cy="9.355" r="9.243"/>
	<path fill="none" stroke="#54A2D7" stroke-width="13" stroke-linecap="round" stroke-linejoin="round" stroke-miterlimit="10" d="
		M1158.654,2191.45c-1.159-5.903-6.896-9.757-12.798-8.599l-48.143,9.451c-5.905,1.158-9.757,6.895-8.598,12.798l12.292,62.619
		 M1173.626,2267.72 M1123.359,2195.602c1.476-0.29,2.91,0.676,3.199,2.148c0.289,1.474-0.668,2.909-2.149,3.2
		c-1.475,0.29-2.91-0.677-3.199-2.149S1121.884,2195.891,1123.359,2195.602z M1091.215,2215.799l69.539-13.65L1091.215,2215.799z"/>
	<path fill="none" stroke="#54A2D7" stroke-width="13" stroke-linecap="round" stroke-linejoin="round" stroke-miterlimit="10" d="
		M1124.409,2200.95c1.481-0.291,2.438-1.727,2.149-3.2c-0.289-1.473-1.724-2.438-3.199-2.148c-1.476,0.289-2.438,1.727-2.149,3.199
		S1122.934,2201.24,1124.409,2200.95z"/>
	<path fill="none" stroke="#54A2D7" stroke-width="13" stroke-linecap="round" stroke-linejoin="round" stroke-miterlimit="10" d="
		M80.129,578.639c-17.424-3.32-34.234,8.117-37.554,25.529c-3.319,17.413,8.106,34.232,25.529,37.555
		c17.413,3.318,34.233-8.118,37.553-25.531C108.976,598.781,97.541,581.959,80.129,578.639z"/>
	<path fill="none" stroke="#54A2D7" stroke-width="13" stroke-linecap="round" stroke-linejoin="round" stroke-miterlimit="10" d="
		M184.773,544.106l42.053,8.016c3.63,0.692,7.242,0.903,10.769,0.678l0.005-0.029l-0.005,0.029
		c19.015-1.213,35.564-15.106,39.301-34.715l20.042-105.135h0h0l4.008-21.027c4.421-23.204-10.836-45.649-34.039-50.073
		l-10.514-2.004v0v0l-31.54-6.012L184.773,544.106z"/>
	<path fill="none" stroke="#54A2D7" stroke-width="13" stroke-linecap="round" stroke-linejoin="round" stroke-miterlimit="10" d="
		M0,927.855l129.839-31.546l-8.943-36.809l-55.214,13.414c-4.936-20.311-25.41-32.811-45.755-27.867
		C11.839,847.012,5,851.449,0,857.353"/>
	<path fill="none" stroke="#54A2D7" stroke-width="13" stroke-linecap="round" stroke-linejoin="round" stroke-miterlimit="10" d="
		M1076.049,0.109l1.934,26.792c0.214,2.967,2.798,5.212,5.774,4.998l102.32-7.388c2.977-0.215,5.212-2.809,4.998-5.775
		l-1.345-18.626 M1076.049,0.109 M1189.73,0.109 M1117.984,18.6l53.853-3.888L1117.984,18.6z M1171.059,3.941l-53.852,3.888
		L1171.059,3.941z M1095.471,6.692c2.974-0.215,5.559,2.019,5.774,4.996s-2.022,5.56-4.997,5.774
		c-2.974,0.214-5.559-2.02-5.773-4.997C1090.26,9.489,1092.497,6.907,1095.471,6.692z"/>
	<path fill="none" stroke="#54A2D7" stroke-width="13" stroke-linecap="round" stroke-linejoin="round" stroke-miterlimit="10" d="
		M1096.248,17.462c2.974-0.215,5.211-2.798,4.997-5.774s-2.8-5.21-5.774-4.996c-2.974,0.215-5.211,2.796-4.996,5.773
		C1090.689,15.442,1093.274,17.677,1096.248,17.462z"/>
	<path fill="none" stroke="#54A2D7" stroke-width="13" stroke-linecap="round" stroke-linejoin="round" stroke-miterlimit="10" d="
		M1078.761,37.671l1.944,26.927c0.214,2.966,2.797,5.211,5.774,4.997l102.32-7.388c2.977-0.215,5.212-2.809,4.998-5.774
		l-1.944-26.927c-0.215-2.977-2.799-5.21-5.775-4.995l-102.32,7.388C1080.781,32.113,1078.546,34.695,1078.761,37.671z
		 M1120.706,56.297l53.853-3.888L1120.706,56.297z M1173.781,41.638l-53.853,3.888L1173.781,41.638z M1098.192,44.389
		c2.974-0.215,5.559,2.019,5.774,4.996c0.215,2.977-2.022,5.561-4.997,5.775c-2.974,0.214-5.559-2.021-5.773-4.998
		C1092.981,47.186,1095.219,44.604,1098.192,44.389z"/>

		<circle fill="none" stroke="#54A2D7" stroke-width="13" stroke-linecap="round" stroke-linejoin="round" stroke-miterlimit="10" cx="1098.581" cy="49.775" r="5.4"/>
	<path fill="none" stroke="#54A2D7" stroke-width="13" stroke-linecap="round" stroke-linejoin="round" stroke-miterlimit="10" d="
		M2132.795,121.15c35.856-6.139,46.764-20.818,42.755-44.228c-2.896-16.916-22.998-35.505-39.14-43.626l-36.252,6.207
		c-12.522,13.029-25.293,37.247-22.397,54.163C2081.77,117.075,2096.939,127.289,2132.795,121.15z M2125.451,58.659l-1.117-6.52
		L2125.451,58.659c5.398-0.925,10.529,2.706,11.453,8.104C2135.98,61.365,2130.85,57.734,2125.451,58.659
		c-5.398,0.924-9.029,6.054-8.105,11.453c0.926,5.405,6.056,9.029,11.453,8.105c5.399-0.924,10.529,2.706,11.454,8.104
		c0.926,5.405-2.706,10.529-8.105,11.454l1.116,6.52l-1.116-6.52c-5.397,0.924-10.527-2.7-11.453-8.105
		c0.926,5.405,6.056,9.029,11.453,8.105c5.399-0.924,9.031-6.048,8.105-11.454c-0.925-5.398-6.055-9.028-11.454-8.104
		c-5.397,0.924-10.527-2.7-11.453-8.105C2116.422,64.713,2120.053,59.583,2125.451,58.659z"/>
	<path fill="none" stroke="#54A2D7" stroke-width="13" stroke-linecap="round" stroke-linejoin="round" stroke-miterlimit="10" d="
		M2219.902,500.017l40.081-210.271l-42.056-8.017c-23.234-4.429-45.639,10.795-50.07,34.04l-4.008,21.025l0,0l0,0l-20.041,105.137
		c-4.431,23.246,10.805,45.641,34.039,50.068L2219.902,500.017z"/>
	<path fill="none" stroke="#54A2D7" stroke-width="13" stroke-linecap="round" stroke-linejoin="round" stroke-miterlimit="10" d="
		M2267.72,857.349c-7.565,8.93-10.914,21.225-7.943,33.453l-55.215,13.415l8.944,36.81l54.214-13.172"/>
	<path fill="none" stroke="#54A2D7" stroke-width="13" stroke-linecap="round" stroke-linejoin="round" stroke-miterlimit="10" d="
		M2267.72,927.854"/>
</g>
</svg>
